# xmcd
#
# Track frame offsets:
#	225
#	13379
#	27792
#	42103
#	57505
#	71915
#	85751
#	98679
#	113296
#	126019
#	137639
#	157212
# Disc length: 2231 seconds
# Revision: 1
# Processed by: cddbd v1.5.2PL0 Copyright (c) Steve Scherf et al.
#
# Submitted via: libkcddb 0.31
#
DISCID=9d08b40c
DTITLE=Various Artist - Mallorca Music - Orquesta la Lunados - CD 1 - 3
DYEAR=1900
DGENRE=Unknown
TTITLE0=Günter Rudin - Franz-Josef Breuer - Marbot - Auf Wiederseh'n Mallorca
TTITLE1=Trad. - Cante de Espana
TTITLE2=Trad. - El Toro y la Luna
TTITLE3=Jacky Sprangers - La Galanteadora
TTITLE4=Trad. - Guantanamera
TTITLE5=Trad. - Las Muchachas
TTITLE6=Trad. - La Mamadeira
TTITLE7=Trad. - Jacky Sprangers - Arena Santa Monica
TTITLE8=Trad. - Clavelito
TTITLE9=Trad. - La Estudiantina
TTITLE10=Trad. - La Paloma
TTITLE11=Jacky Sprangers - Sueno del Amor
EXTD=
EXTT0=
EXTT1=
EXTT2=
EXTT3=
EXTT4=
EXTT5=
EXTT6=
EXTT7=
EXTT8=
EXTT9=
EXTT10=
EXTT11=
PLAYORDER=
